<?xml version="1.0" encoding="UTF-8"?>
<svg xmlns="http://www.w3.org/2000/svg" width="1620" height="1320" viewBox="0 0 1620 1320">
<defs>
<marker id="ah" markerWidth="9" markerHeight="9" refX="8" refY="4" orient="auto">
<path d="M0,0 L9,4 L0,8 Z" fill="#1565c0"/>
</marker>
<marker id="au" markerWidth="9" markerHeight="9" refX="8" refY="4" orient="auto">
<path d="M0,0 L9,4 L0,8 Z" fill="#2e7d32"/>
</marker>
<marker id="am" markerWidth="9" markerHeight="9" refX="8" refY="4" orient="auto">
<path d="M0,0 L9,4 L0,8 Z" fill="#6d4c41"/>
</marker>
<marker id="ag" markerWidth="9" markerHeight="9" refX="8" refY="4" orient="auto">
<path d="M0,0 L9,4 L0,8 Z" fill="#444"/>
</marker>
</defs>
<text x="810" y="42" text-anchor="middle" font-size="24" font-weight="bold" font-family="DejaVu Sans, Liberation Sans, Arial">Функциональная структура программы</text>
<text x="810" y="72" text-anchor="middle" font-size="15" font-family="DejaVu Sans, Arial">«Корзина» для программ, использующих системный вызов unlink()</text>
<rect x="60" y="95" width="1060" height="118" fill="#e8f4fc" stroke="#333" stroke-width="2"/>
<text x="590" y="118" text-anchor="middle" font-size="17" font-weight="bold">Пользовательский уровень</text>
<rect x="90" y="130" width="170" height="70" fill="#fff" stroke="#333" stroke-width="2" rx="4"/>
<text x="175.0" y="158" text-anchor="middle" font-size="13" font-family="DejaVu Sans, Arial">Пользователь</text>
<rect x="300" y="130" width="260" height="70" fill="#fff" stroke="#333" stroke-width="2" rx="4"/>
<text x="430.0" y="158" text-anchor="middle" font-size="13" font-family="DejaVu Sans, Arial">Прикладные программы</text>
<text x="430.0" y="178" text-anchor="middle" font-size="13" font-family="DejaVu Sans, Arial">(rm, утилиты)</text>
<rect x="600" y="130" width="220" height="70" fill="#fff" stroke="#333" stroke-width="2" rx="4"/>
<text x="710.0" y="158" text-anchor="middle" font-size="13" font-family="DejaVu Sans, Arial">trash-util</text>
<text x="710.0" y="178" text-anchor="middle" font-size="13" font-family="DejaVu Sans, Arial">(управление)</text>
<rect x="870" y="130" width="230" height="70" fill="#fff" stroke="#333" stroke-width="2" rx="4"/>
<text x="985.0" y="158" text-anchor="middle" font-size="13" font-family="DejaVu Sans, Arial">LD_PRELOAD=</text>
<text x="985.0" y="178" text-anchor="middle" font-size="13" font-family="DejaVu Sans, Arial">libtrashhook.so</text>
<path d="M 260 165 L 300 165" fill="none" stroke="#444" stroke-width="2.2" marker-end="url(#ag)"/>
<path d="M 560 165 L 600 165" fill="none" stroke="#444" stroke-width="2.2" marker-end="url(#ag)"/>
<rect x="492.75" y="143" width="124.5" height="18" fill="white" stroke="#ddd" rx="2"/>
<text x="555" y="158" text-anchor="middle" font-size="11" font-weight="bold" font-family="DejaVu Sans, Arial" fill="#444">при необходимости</text>
<path d="M 820 165 L 870 165" fill="none" stroke="#444" stroke-width="2.2" marker-end="url(#ag)"/>
<rect x="60" y="240" width="1060" height="500" fill="#f5f5f5" stroke="#333" stroke-width="3"/>
<text x="590" y="268" text-anchor="middle" font-size="17" font-weight="bold">Системная часть программы (ядро на языке C)</text>
<rect x="90" y="285" width="340" height="185" fill="#fff" stroke="#333" stroke-width="2" rx="4"/>
<text x="260.0" y="313" text-anchor="middle" font-size="13" font-family="DejaVu Sans, Arial">trash_hook.c → libtrashhook.so</text>
<text x="260.0" y="333" text-anchor="middle" font-size="13" font-family="DejaVu Sans, Arial">перехват unlink(), unlinkat(), remove()</text>
<text x="260.0" y="353" text-anchor="middle" font-size="13" font-family="DejaVu Sans, Arial">пути, перенос в корзину, dlsym</text>
<rect x="470" y="285" width="340" height="185" fill="#fff" stroke="#333" stroke-width="2" rx="4"/>
<text x="640.0" y="313" text-anchor="middle" font-size="13" font-family="DejaVu Sans, Arial">trash_util.c → trash-util</text>
<text x="640.0" y="333" text-anchor="middle" font-size="13" font-family="DejaVu Sans, Arial">list, restore, purge, info, menu</text>
<text x="640.0" y="353" text-anchor="middle" font-size="13" font-family="DejaVu Sans, Arial">восстановление, очистка корзины</text>
<rect x="200" y="495" width="520" height="115" fill="#e8f5e9" stroke="#2e7d32" stroke-width="2" rx="4"/>
<text x="460.0" y="523" text-anchor="middle" font-size="13" font-family="DejaVu Sans, Arial">trash_common.c / trash_common.h</text>
<text x="460.0" y="543" text-anchor="middle" font-size="13" font-family="DejaVu Sans, Arial">Trash/{files,info}, .trashinfo, ID</text>
<path d="M 260 470 L 260 495" fill="none" stroke="#444" stroke-width="2.2" marker-end="url(#ag)"/>
<rect x="262.5" y="473" width="79.0" height="18" fill="white" stroke="#ddd" rx="2"/>
<text x="302" y="488" text-anchor="middle" font-size="11" font-weight="bold" font-family="DejaVu Sans, Arial" fill="#444">Использует</text>
<path d="M 640 470 L 640 495" fill="none" stroke="#444" stroke-width="2.2" marker-end="url(#ag)"/>
<rect x="642.5" y="473" width="79.0" height="18" fill="white" stroke="#ddd" rx="2"/>
<text x="682" y="488" text-anchor="middle" font-size="11" font-weight="bold" font-family="DejaVu Sans, Arial" fill="#444">Использует</text>
<rect x="90" y="635" width="980" height="85" fill="#fafafa" stroke="#333" stroke-width="2" rx="4"/>
<text x="580.0" y="663" text-anchor="middle" font-size="13" font-family="DejaVu Sans, Arial">Makefile — libtrashhook.so, trash-util, trash_common.o</text>
<rect x="60" y="820" width="1060" height="155" fill="#fff3e0" stroke="#333" stroke-width="3"/>
<text x="590" y="848" text-anchor="middle" font-size="17" font-weight="bold">Прикладные сценарии</text>
<rect x="100" y="870" width="220" height="88" fill="#fff" stroke="#333" stroke-width="2" rx="4"/>
<text x="210.0" y="898" text-anchor="middle" font-size="13" font-family="DejaVu Sans, Arial">demo-cycle.sh</text>
<text x="210.0" y="918" text-anchor="middle" font-size="13" font-family="DejaVu Sans, Arial">сборка, rm, list</text>
<rect x="350" y="870" width="220" height="88" fill="#fff" stroke="#333" stroke-width="2" rx="4"/>
<text x="460.0" y="898" text-anchor="middle" font-size="13" font-family="DejaVu Sans, Arial">setup-test-area.sh</text>
<text x="460.0" y="918" text-anchor="middle" font-size="13" font-family="DejaVu Sans, Arial">подготовка ~/test_area</text>
<rect x="600" y="870" width="220" height="88" fill="#fff" stroke="#333" stroke-width="2" rx="4"/>
<text x="710.0" y="898" text-anchor="middle" font-size="13" font-family="DejaVu Sans, Arial">trash-util (CLI / меню)</text>
<text x="710.0" y="918" text-anchor="middle" font-size="13" font-family="DejaVu Sans, Arial">list, restore, purge</text>
<rect x="850" y="870" width="220" height="88" fill="#fff" stroke="#333" stroke-width="2" rx="4"/>
<text x="960.0" y="898" text-anchor="middle" font-size="13" font-family="DejaVu Sans, Arial">rm + LD_PRELOAD</text>
<text x="960.0" y="918" text-anchor="middle" font-size="13" font-family="DejaVu Sans, Arial">удаление в корзину</text>
<rect x="60" y="1010" width="1060" height="145" fill="#e8f5e9" stroke="#333" stroke-width="3"/>
<text x="590" y="1038" text-anchor="middle" font-size="17" font-weight="bold">Внешние утилиты</text>
<rect x="130" y="1055" width="100" height="52" fill="#fff" stroke="#333" stroke-width="2" rx="4"/>
<text x="180.0" y="1083" text-anchor="middle" font-size="13" font-family="DejaVu Sans, Arial">make</text>
<rect x="130" y="1115" width="100" height="52" fill="#fff" stroke="#333" stroke-width="2" rx="4"/>
<text x="180.0" y="1143" text-anchor="middle" font-size="13" font-family="DejaVu Sans, Arial">gcc</text>
<rect x="250" y="1055" width="100" height="52" fill="#fff" stroke="#333" stroke-width="2" rx="4"/>
<text x="300.0" y="1083" text-anchor="middle" font-size="13" font-family="DejaVu Sans, Arial">rm</text>
<rect x="410" y="1055" width="100" height="52" fill="#fff" stroke="#333" stroke-width="2" rx="4"/>
<text x="460.0" y="1083" text-anchor="middle" font-size="13" font-family="DejaVu Sans, Arial">bash</text>
<rect x="910" y="1055" width="100" height="52" fill="#fff" stroke="#333" stroke-width="2" rx="4"/>
<text x="960.0" y="1083" text-anchor="middle" font-size="13" font-family="DejaVu Sans, Arial">rm</text>
<rect x="1160" y="240" width="380" height="915" fill="#fff8e6" stroke="#333" stroke-width="3"/>
<text x="1350" y="268" text-anchor="middle" font-size="17" font-weight="bold">Внешняя среда и ОС</text>
<rect x="1185" y="295" width="330" height="100" fill="#fff" stroke="#333" stroke-width="2" rx="4"/>
<text x="1350.0" y="323" text-anchor="middle" font-size="13" font-family="DejaVu Sans, Arial">Системные вызовы и libc</text>
<text x="1350.0" y="343" text-anchor="middle" font-size="13" font-family="DejaVu Sans, Arial">unlink, unlinkat, rename, ...</text>
<rect x="1185" y="415" width="330" height="90" fill="#fff" stroke="#333" stroke-width="2" rx="4"/>
<text x="1350.0" y="443" text-anchor="middle" font-size="13" font-family="DejaVu Sans, Arial">libdl — dlsym(RTLD_NEXT, …)</text>
<rect x="1185" y="525" width="330" height="120" fill="#fff" stroke="#333" stroke-width="2" rx="4"/>
<text x="1350.0" y="553" text-anchor="middle" font-size="13" font-family="DejaVu Sans, Arial">Файловая система</text>
<text x="1350.0" y="573" text-anchor="middle" font-size="13" font-family="DejaVu Sans, Arial">Trash/files, Trash/info</text>
<rect x="1185" y="665" width="330" height="85" fill="#fff" stroke="#333" stroke-width="2" rx="4"/>
<text x="1350.0" y="693" text-anchor="middle" font-size="13" font-family="DejaVu Sans, Arial">HOME, LD_PRELOAD,</text>
<text x="1350.0" y="713" text-anchor="middle" font-size="13" font-family="DejaVu Sans, Arial">TRASH_HOOK_DISABLE</text>
<rect x="1185" y="770" width="330" height="55" fill="#fff" stroke="#333" stroke-width="2" rx="4"/>
<text x="1350.0" y="798" text-anchor="middle" font-size="13" font-family="DejaVu Sans, Arial">$HOME — рабочие файлы</text>
<rect x="60" y="728" width="1060" height="44" fill="#fafafa" stroke="#bbb" stroke-width="1" rx="4"/>
<text x="80" y="748" font-size="12" font-weight="bold" font-family="DejaVu Sans, Arial">Цвет стрелок к сценариям:</text>
<line x1="230" y1="762" x2="260" y2="762" stroke="#1565c0" stroke-width="3"/>
<text x="268" y="766" font-size="11" font-family="DejaVu Sans, Arial">trash_hook.c</text>
<line x1="400" y1="762" x2="430" y2="762" stroke="#2e7d32" stroke-width="3"/>
<text x="438" y="766" font-size="11" font-family="DejaVu Sans, Arial">trash_util.c</text>
<line x1="560" y1="762" x2="590" y2="762" stroke="#6d4c41" stroke-width="3"/>
<text x="598" y="766" font-size="11" font-family="DejaVu Sans, Arial">Makefile</text>
<text x="700" y="766" font-size="11" font-family="DejaVu Sans, Arial" fill="#555">на стрелке — что именно делает модуль в этом сценарии</text>
<path d="M 710 200 L 710 222 L 640 222 L 640 285" fill="none" stroke="#444" stroke-width="2.2" marker-end="url(#ag)"/>
<rect x="641.5" y="199" width="53.0" height="18" fill="white" stroke="#ddd" rx="2"/>
<text x="668" y="214" text-anchor="middle" font-size="11" font-weight="bold" font-family="DejaVu Sans, Arial" fill="#444">запуск</text>
<path d="M 985 200 L 985 218 L 260 218 L 260 285" fill="none" stroke="#444" stroke-width="2.2" marker-end="url(#ag)"/>
<rect x="510.25" y="193" width="59.5" height="18" fill="white" stroke="#ddd" rx="2"/>
<text x="540" y="208" text-anchor="middle" font-size="11" font-weight="bold" font-family="DejaVu Sans, Arial" fill="#444">подмена</text>
<path d="M 175 200 L 175 760 L 460 760 L 460 870" fill="none" stroke="#6a1b9a" stroke-width="2.2" marker-end="url(#ag)"/>
<rect x="187.5" y="767" width="105.0" height="18" fill="white" stroke="#ddd" rx="2"/>
<text x="240" y="782" text-anchor="middle" font-size="11" font-weight="bold" font-family="DejaVu Sans, Arial" fill="#6a1b9a">запуск вручную</text>
<path d="M 360 470 L 360 812 L 960 812 L 960 870" fill="none" stroke="#1565c0" stroke-width="2.2" marker-end="url(#ah)"/>
<rect x="694.25" y="787" width="111.5" height="18" fill="white" stroke="#ddd" rx="2"/>
<text x="750" y="802" text-anchor="middle" font-size="11" font-weight="bold" font-family="DejaVu Sans, Arial" fill="#1565c0">libtrashhook.so</text>
<path d="M 180 470 L 180 798 L 210 798 L 210 870" fill="none" stroke="#1565c0" stroke-width="2.2" marker-end="url(#ah)"/>
<rect x="173.75" y="773" width="72.5" height="18" fill="white" stroke="#ddd" rx="2"/>
<text x="210" y="788" text-anchor="middle" font-size="11" font-weight="bold" font-family="DejaVu Sans, Arial" fill="#1565c0">rm в demo</text>
<path d="M 640 470 L 640 822 L 710 822 L 710 870" fill="none" stroke="#2e7d32" stroke-width="2.2" marker-end="url(#au)"/>
<rect x="663.75" y="797" width="72.5" height="18" fill="white" stroke="#ddd" rx="2"/>
<text x="700" y="812" text-anchor="middle" font-size="11" font-weight="bold" font-family="DejaVu Sans, Arial" fill="#2e7d32">реализует</text>
<path d="M 550 470 L 550 806 L 265 806 L 265 870" fill="none" stroke="#2e7d32" stroke-width="2.2" marker-end="url(#au)"/>
<rect x="357.25" y="781" width="85.5" height="18" fill="white" stroke="#ddd" rx="2"/>
<text x="400" y="796" text-anchor="middle" font-size="11" font-weight="bold" font-family="DejaVu Sans, Arial" fill="#2e7d32">list в demo</text>
<path d="M 580 720 L 580 790 L 175 790 L 175 870" fill="none" stroke="#6d4c41" stroke-width="2.2" marker-end="url(#am)"/>
<rect x="457.25" y="765" width="85.5" height="18" fill="white" stroke="#ddd" rx="2"/>
<text x="500" y="780" text-anchor="middle" font-size="11" font-weight="bold" font-family="DejaVu Sans, Arial" fill="#6d4c41">make в demo</text>
<path d="M 480 720 L 480 1090 L 180 1090 L 180 1115" fill="none" stroke="#6d4c41" stroke-width="2.2" marker-end="url(#am)"/>
<rect x="293.5" y="1063" width="53.0" height="18" fill="white" stroke="#ddd" rx="2"/>
<text x="320" y="1078" text-anchor="middle" font-size="11" font-weight="bold" font-family="DejaVu Sans, Arial" fill="#6d4c41">сборка</text>
<path d="M 210 958 L 210 1040 L 180 1040 L 180 1055" fill="none" stroke="#444" stroke-width="2.2" marker-end="url(#ag)"/>
<rect x="175.0" y="1017" width="40.0" height="18" fill="white" stroke="#ddd" rx="2"/>
<text x="195" y="1032" text-anchor="middle" font-size="11" font-weight="bold" font-family="DejaVu Sans, Arial" fill="#444">make</text>
<path d="M 260 958 L 260 1048 L 300 1048 L 300 1055" fill="none" stroke="#444" stroke-width="2.2" marker-end="url(#ag)"/>
<rect x="296.5" y="1025" width="27.0" height="18" fill="white" stroke="#ddd" rx="2"/>
<text x="310" y="1040" text-anchor="middle" font-size="11" font-weight="bold" font-family="DejaVu Sans, Arial" fill="#444">rm</text>
<path d="M 460 958 L 460 1042 L 460 1042 L 460 1055" fill="none" stroke="#444" stroke-width="2.2" marker-end="url(#ag)"/>
<rect x="455.0" y="1019" width="40.0" height="18" fill="white" stroke="#ddd" rx="2"/>
<text x="475" y="1034" text-anchor="middle" font-size="11" font-weight="bold" font-family="DejaVu Sans, Arial" fill="#444">bash</text>
<path d="M 960 958 L 960 1040 L 960 1040 L 960 1055" fill="none" stroke="#444" stroke-width="2.2" marker-end="url(#ag)"/>
<rect x="961.5" y="1017" width="27.0" height="18" fill="white" stroke="#ddd" rx="2"/>
<text x="975" y="1032" text-anchor="middle" font-size="11" font-weight="bold" font-family="DejaVu Sans, Arial" fill="#444">rm</text>
<path d="M 430 340 L 1145 340 L 1185 340" fill="none" stroke="#444" stroke-width="2.2" marker-end="url(#ag)"/>
<rect x="1068.5" y="317" width="53.0" height="18" fill="white" stroke="#ddd" rx="2"/>
<text x="1095" y="332" text-anchor="middle" font-size="11" font-weight="bold" font-family="DejaVu Sans, Arial" fill="#444">вызовы</text>
<path d="M 430 390 L 1157 390 L 1157 460 L 1185 460" fill="none" stroke="#444" stroke-width="2.2" marker-end="url(#ag)"/>
<rect x="1083.75" y="403" width="46.5" height="18" fill="white" stroke="#ddd" rx="2"/>
<text x="1107" y="418" text-anchor="middle" font-size="11" font-weight="bold" font-family="DejaVu Sans, Arial" fill="#444">dlsym</text>
<path d="M 430 440 L 1169 440 L 1169 585 L 1185 585" fill="none" stroke="#444" stroke-width="2.2" marker-end="url(#ag)"/>
<rect x="1090.5" y="495" width="53.0" height="18" fill="white" stroke="#ddd" rx="2"/>
<text x="1117" y="510" text-anchor="middle" font-size="11" font-weight="bold" font-family="DejaVu Sans, Arial" fill="#444">запись</text>
<path d="M 810 400 L 1181 400 L 1181 585 L 1185 600" fill="none" stroke="#444" stroke-width="2.2" marker-end="url(#ag)"/>
<rect x="1102.5" y="480" width="53.0" height="18" fill="white" stroke="#ddd" rx="2"/>
<text x="1129" y="495" text-anchor="middle" font-size="11" font-weight="bold" font-family="DejaVu Sans, Arial" fill="#444">чтение</text>
</svg>